<?xml version="1.0" encoding="UTF-8"?>
<!DOCTYPE svg PUBLIC "-//W3C//DTD SVG 1.1//EN" "http://www.w3.org/Graphics/SVG/1.1/DTD/svg11.dtd">
<!-- Creator: CorelDRAW -->
<svg xmlns="http://www.w3.org/2000/svg" xml:space="preserve" width="2048px" height="2048px" style="shape-rendering:geometricPrecision; text-rendering:geometricPrecision; image-rendering:optimizeQuality; fill-rule:evenodd; clip-rule:evenodd"
viewBox="0 0 2048 2048"
 xmlns:xlink="http://www.w3.org/1999/xlink">
 <defs>
  <style type="text/css">
   <![CDATA[
    .fil2 {fill:none}
    .fil1 {fill:#0097A7}
    .fil0 {fill:#26C6DA}
    .fil7 {fill:#CA2B03}
    .fil8 {fill:#DD2C00}
    .fil4 {fill:#EFDA9F}
    .fil3 {fill:#FFECB3}
    .fil9 {fill:#FFFFFE}
    .fil5 {fill:#424242;fill-rule:nonzero}
    .fil11 {fill:#CFCFCF;fill-rule:nonzero}
    .fil6 {fill:#E6E6E5;fill-rule:nonzero}
    .fil10 {fill:#FFFFFE;fill-rule:nonzero}
   ]]>
  </style>
   <clipPath id="id0">
    <path d="M1024 -0.0011811c565.541,0 1024,458.461 1024,1024 0,565.541 -458.461,1024 -1024,1024 -565.541,0 -1024,-458.461 -1024,-1024 0,-565.541 458.461,-1024 1024,-1024z"/>
   </clipPath>
 </defs>
 <g id="Layer_x0020_1">
  <metadata id="CorelCorpID_0Corel-Layer"/>
  <path class="fil0" d="M1024 -0.0011811c565.541,0 1024,458.461 1024,1024 0,565.541 -458.461,1024 -1024,1024 -565.541,0 -1024,-458.461 -1024,-1024 0,-565.541 458.461,-1024 1024,-1024z"/>
  <g style="clip-path:url(#id0)">
   <g id="_517155592">
    <g>
     <polygon id="_5279090481" class="fil1" points="715.236,880.854 1851.12,2016.74 1851.08,2020.8 1850.96,2024.84 1850.76,2028.85 1850.49,2032.84 1850.14,2036.8 1849.71,2040.73 1849.21,2044.63 1848.64,2048.49 1847.99,2052.33 1847.28,2056.13 1846.49,2059.89 1845.63,2063.62 1844.71,2067.31 1843.72,2070.96 1842.66,2074.57 1841.53,2078.14 1840.34,2081.66 1839.09,2085.14 1837.77,2088.58 1836.39,2091.97 1834.95,2095.31 1833.46,2098.6 1831.9,2101.84 1830.28,2105.03 1828.61,2108.16 1826.88,2111.25 1825.1,2114.27 1823.26,2117.24 1821.37,2120.15 1819.43,2123 1817.43,2125.8 1815.39,2128.53 679.506,992.643 681.551,989.913 683.546,987.121 685.489,984.27 687.38,981.359 689.217,978.389 691.001,975.363 692.73,972.282 694.403,969.146 696.017,965.957 697.575,962.716 699.074,959.424 700.512,956.084 701.891,952.696 703.206,949.261 704.46,945.78 705.649,942.255 706.775,938.687 707.834,935.077 708.826,931.427 709.751,927.738 710.608,924.01 711.395,920.246 712.112,916.445 712.758,912.611 713.331,908.744 713.83,904.846 714.256,900.916 714.606,896.957 714.88,892.97 715.078,888.956 715.196,884.917 "/>
     <polygon id="_527909144" class="fil1" points="679.506,992.643 1815.39,2128.53 1813.52,2130.91 1811.62,2133.23 1809.68,2135.51 1807.7,2137.74 1805.69,2139.91 1803.64,2142.03 1801.55,2144.1 1799.43,2146.11 1797.28,2148.06 1795.09,2149.96 1792.87,2151.8 1790.62,2153.58 1788.34,2155.3 1786.02,2156.96 1783.68,2158.56 1781.3,2160.1 1778.9,2161.58 1776.47,2162.99 1774.01,2164.34 1771.52,2165.62 1769.01,2166.83 1766.47,2167.98 1763.9,2169.06 1761.32,2170.08 1758.7,2171.02 1756.07,2171.89 1753.41,2172.7 1750.73,2173.43 1748.03,2174.08 1745.31,2174.67 1742.56,2175.18 1739.8,2175.61 603.921,1039.73 606.682,1039.3 609.424,1038.79 612.147,1038.2 614.848,1037.54 617.528,1036.81 620.187,1036.01 622.822,1035.14 625.434,1034.19 628.022,1033.18 630.586,1032.1 633.126,1030.95 635.639,1029.73 638.125,1028.45 640.584,1027.11 643.016,1025.69 645.42,1024.22 647.795,1022.68 650.139,1021.08 652.454,1019.42 654.739,1017.7 656.991,1015.92 659.212,1014.08 661.399,1012.18 663.553,1010.23 665.673,1008.22 667.758,1006.15 669.808,1004.03 671.822,1001.86 673.801,999.63 675.74,997.352 677.643,995.023 "/>
     <polygon id="_527910440" class="fil1" points="578.03,1040.08 1713.91,2175.96 1711.05,2175.59 1708.2,2175.14 1705.38,2174.6 1702.58,2173.99 1699.8,2173.3 1697.04,2172.54 1694.3,2171.69 1691.59,2170.77 1688.91,2169.78 1686.25,2168.72 1683.62,2167.58 1681.01,2166.37 1678.43,2165.09 1675.88,2163.74 1673.36,2162.32 1670.87,2160.83 1668.41,2159.27 1665.98,2157.65 1663.58,2155.97 1661.21,2154.22 1658.88,2152.4 1656.58,2150.53 1654.32,2148.59 1652.09,2146.59 516.206,1010.71 518.435,1012.71 520.699,1014.64 522.997,1016.52 525.33,1018.34 527.696,1020.09 530.095,1021.77 532.524,1023.39 534.985,1024.95 537.478,1026.43 539.998,1027.85 542.549,1029.2 545.128,1030.48 547.734,1031.69 550.368,1032.83 553.027,1033.9 555.713,1034.89 558.422,1035.81 561.156,1036.65 563.914,1037.42 566.695,1038.11 569.497,1038.72 572.32,1039.26 575.165,1039.71 "/>
     <polygon id="_527910392" class="fil1" points="603.639,1140.76 1739.52,2276.65 1739.53,2278.27 1739.54,2279.87 1739.56,2281.43 1739.59,2282.96 1739.63,2284.45 1739.68,2285.91 1739.74,2287.34 1739.8,2288.75 603.918,1152.86 603.854,1151.46 603.798,1150.03 603.75,1148.57 603.71,1147.07 603.68,1145.55 603.657,1143.99 603.644,1142.39 "/>
     <polygon id="_527909720" class="fil1" points="605.457,1152.85 1741.34,2288.74 1741.94,2292.89 1742.64,2296.7 1743.41,2300.19 1744.27,2303.4 1745.2,2306.35 1746.19,2309.08 1747.24,2311.61 1748.33,2313.98 1749.47,2316.2 1750.64,2318.32 1751.83,2320.36 1753.05,2322.35 1754.28,2324.33 1755.51,2326.31 1756.74,2328.34 1757.96,2330.43 1759.16,2332.63 1760.34,2334.95 1761.48,2337.44 1762.59,2340.11 1763.65,2343 1764.65,2346.14 1765.6,2349.56 1766.47,2353.28 1767.28,2357.34 1767.99,2361.77 1768.62,2366.59 1769.15,2371.84 1769.57,2377.55 1769.89,2383.74 1770.08,2390.44 1770.15,2397.69 634.264,1261.8 634.198,1254.56 634.006,1247.85 633.694,1241.66 633.269,1235.96 632.739,1230.71 632.112,1225.89 631.394,1221.46 630.593,1217.4 629.718,1213.68 628.773,1210.26 627.767,1207.12 626.708,1204.23 625.601,1201.56 624.455,1199.07 623.278,1196.75 622.076,1194.55 620.856,1192.46 619.628,1190.43 618.395,1188.45 617.168,1186.47 615.952,1184.48 614.756,1182.44 613.587,1180.32 612.45,1178.09 611.356,1175.73 610.309,1173.2 609.319,1170.47 608.391,1167.52 607.534,1164.31 606.754,1160.82 606.06,1157.01 "/>
     <polygon id="_527909960" class="fil1" points="603.921,1039.73 1739.8,2175.61 1739.52,2276.65 603.639,1140.76 "/>
     <polygon id="_527910224" class="fil1" points="1125.25,594.739 2261.14,1730.62 2260.38,1729.82 2259.63,1729.15 2258.9,1728.61 2258.17,1728.2 2257.45,1727.9 2256.74,1727.72 2256.05,1727.63 2255.37,1727.64 1119.49,591.759 1120.17,591.749 1120.86,591.834 1121.57,592.022 1122.29,592.319 1123.02,592.731 1123.75,593.268 1124.5,593.934 "/>
     <polygon id="_527909840" class="fil1" points="1119.49,591.759 2255.37,1727.64 2255.19,1727.66 2255,1727.68 2254.83,1727.71 2254.65,1727.75 2254.47,1727.79 2254.29,1727.84 2254.12,1727.89 2253.94,1727.95 1118.06,592.069 1118.24,592.01 1118.41,591.957 1118.59,591.909 1118.77,591.867 1118.94,591.831 1119.12,591.8 1119.3,591.776 "/>
     <polygon id="_527910536" class="fil1" points="1090.87,613.239 2226.75,1749.12 2220.49,1752.52 2214.05,1755.77 2207.43,1758.85 2200.65,1761.79 2193.71,1764.56 2186.62,1767.18 2179.39,1769.65 2172.03,1771.96 2164.53,1774.12 2156.91,1776.13 2149.18,1777.98 2141.34,1779.69 2133.41,1781.24 2125.38,1782.64 2117.26,1783.89 2109.07,1784.99 2100.81,1785.94 2092.48,1786.74 2084.1,1787.39 2075.67,1787.9 2067.2,1788.26 2058.7,1788.47 2050.17,1788.53 2041.62,1788.45 2033.06,1788.23 2024.49,1787.86 2015.93,1787.34 2007.38,1786.68 1998.84,1785.88 1990.33,1784.94 1981.85,1783.85 1973.42,1782.62 837.535,646.739 845.973,647.967 854.451,649.054 862.961,649.999 871.496,650.801 880.048,651.459 888.611,651.974 897.177,652.345 905.737,652.57 914.286,652.651 922.817,652.586 931.32,652.374 939.791,652.015 948.219,651.51 956.6,650.856 964.926,650.054 973.188,649.104 981.38,648.004 989.494,646.753 997.524,645.354 1005.46,643.803 1013.3,642.1 1021.03,640.247 1028.65,638.24 1036.15,636.08 1043.51,633.767 1050.74,631.3 1057.83,628.679 1064.77,625.903 1071.55,622.972 1078.16,619.884 1084.61,616.64 "/>
     <polygon id="_527910824" class="fil1" points="1487.13,1054.93 2623.01,2190.81 2621.84,2190.88 2620.71,2190.95 2619.61,2191 2618.53,2191.05 2617.49,2191.09 2616.48,2191.12 2615.49,2191.15 2614.53,2191.17 1478.65,1055.28 1479.61,1055.26 1480.59,1055.24 1481.61,1055.21 1482.65,1055.17 1483.73,1055.12 1484.83,1055.06 1485.96,1055 "/>
     <polygon id="_527910920" class="fil1" points="1478.65,1055.28 2614.53,2191.17 2614.44,2191.17 1478.56,1055.29 "/>
     <polygon id="_527910944" class="fil1" points="1478.56,1055.29 2614.44,2191.17 2614.34,2191.17 1478.46,1055.28 "/>
     <polygon id="_527911064" class="fil1" points="1478.46,1055.28 2614.34,2191.17 2613.38,2191.15 2612.4,2191.12 2611.38,2191.09 2610.34,2191.05 2609.26,2191 2608.16,2190.95 2607.03,2190.88 2605.87,2190.81 1469.98,1054.93 1471.15,1055 1472.28,1055.06 1473.38,1055.12 1474.46,1055.17 1475.5,1055.21 1476.52,1055.24 1477.5,1055.26 "/>
     <polygon id="_527910488" class="fil1" points="1402.21,953.828 2538.09,2089.71 2536.44,2088.22 2534.82,2086.68 2533.25,2085.1 2531.72,2083.48 1395.83,947.593 1397.37,949.221 1398.94,950.802 1400.55,952.338 "/>
     <polygon id="_527911112" class="fil1" points="1410.71,962.394 2546.59,2098.28 2544.73,2096.25 2542.94,2094.37 2541.23,2092.65 2539.62,2091.09 2538.09,2089.71 1402.21,953.828 1403.73,955.213 1405.35,956.769 1407.06,958.49 1408.85,960.368 "/>
     <polygon id="_527910632" class="fil1" points="1410.65,620.778 2546.53,1756.66 2538.2,1756.52 2529.87,1756.38 2521.55,1756.23 2513.22,1756.08 2504.89,1755.94 2496.57,1755.78 2488.24,1755.63 2479.91,1755.47 2471.58,1755.32 2463.25,1755.16 2454.93,1754.99 2446.6,1754.83 2438.27,1754.66 2429.94,1754.5 2421.61,1754.33 2413.28,1754.15 2404.96,1753.98 2396.63,1753.81 2388.3,1753.63 2379.97,1753.45 2371.64,1753.27 2363.31,1753.09 2354.99,1752.9 2346.66,1752.72 2338.33,1752.53 2330,1752.34 2321.68,1752.15 2313.35,1751.96 2305.03,1751.76 2296.7,1751.57 2288.37,1751.37 2280.05,1751.17 1144.17,615.287 1152.49,615.486 1160.82,615.683 1169.14,615.879 1177.47,616.073 1185.8,616.265 1194.12,616.457 1202.45,616.646 1210.78,616.834 1219.11,617.02 1227.43,617.204 1235.76,617.386 1244.09,617.567 1252.42,617.747 1260.75,617.924 1269.07,618.099 1277.4,618.272 1285.73,618.445 1294.06,618.613 1302.39,618.782 1310.72,618.948 1319.04,619.112 1327.37,619.274 1335.7,619.433 1344.03,619.591 1352.36,619.747 1360.68,619.901 1369.01,620.053 1377.34,620.202 1385.67,620.35 1393.99,620.495 1402.32,620.638 "/>
     <polygon id="_527911160" class="fil1" points="1118.06,592.069 2253.94,1727.95 2253.31,1728.19 2252.66,1728.47 2252.02,1728.77 2251.37,1729.1 2250.71,1729.46 2250.06,1729.85 2249.4,1730.26 2248.74,1730.69 1112.86,594.811 1113.52,594.378 1114.17,593.969 1114.83,593.582 1115.49,593.222 1116.14,592.889 1116.78,592.584 1117.43,592.31 "/>
     <polygon id="_527910680" class="fil1" points="1112.86,594.811 2248.74,1730.69 2247,1731.93 2245.27,1733.28 2243.58,1734.7 2241.93,1736.16 2240.36,1737.63 2238.86,1739.07 2237.46,1740.45 2236.17,1741.74 1100.29,605.855 1101.58,604.568 1102.98,603.187 1104.48,601.746 1106.05,600.278 1107.7,598.817 1109.39,597.396 1111.12,596.05 "/>
     <polygon id="_527910776" class="fil1" points="1144.17,615.287 2280.05,1751.17 2278.01,1751.15 2276.02,1750.8 2274.13,1750.15 2272.37,1749.2 2270.77,1747.98 2269.38,1746.5 1133.5,610.622 1134.89,612.099 1136.49,613.317 1138.25,614.265 1140.14,614.92 1142.13,615.267 "/>
     <polygon id="_527911328" class="fil1" points="1408.62,723.146 2544.5,1859.03 2544.74,1859.69 2544.94,1860.37 2545.11,1861.07 2545.24,1861.77 2545.33,1862.49 2545.38,1863.22 2545.4,1863.95 2545.37,1864.7 1409.49,728.815 1409.52,728.07 1409.5,727.334 1409.45,726.606 1409.35,725.89 1409.22,725.183 1409.06,724.49 1408.86,723.811 "/>
     <polygon id="_527911712" class="fil1" points="1400.46,873.875 2536.34,2009.76 2536.3,2010.59 2536.25,2011.47 2536.22,2012.4 2536.19,2013.36 2536.17,2014.37 2536.15,2015.42 2536.14,2016.51 2536.14,2017.64 1400.26,881.756 1400.26,880.626 1400.27,879.536 1400.29,878.487 1400.31,877.481 1400.34,876.516 1400.37,875.592 1400.41,874.712 "/>
     <polygon id="_527911640" class="fil1" points="1436.37,578.195 2572.25,1714.08 2572.1,1716.49 2571.83,1718.89 2571.46,1721.27 2570.97,1723.64 2570.38,1726 2569.68,1728.35 2568.87,1730.68 2567.96,1733 2566.94,1735.32 2565.82,1737.62 2564.61,1739.92 2563.29,1742.21 2561.87,1744.48 2560.35,1746.75 2558.74,1749.02 2557.04,1751.27 1421.15,615.393 1422.86,613.136 1424.47,610.871 1425.99,608.601 1427.41,606.323 1428.72,604.036 1429.94,601.74 1431.06,599.436 1432.08,597.122 1432.99,594.798 1433.8,592.463 1434.5,590.116 1435.09,587.757 1435.58,585.387 1435.95,583.003 1436.22,580.606 "/>
     <polygon id="_527911256" class="fil1" points="1409.49,728.815 2545.37,1864.7 2536.34,2009.76 1400.46,873.875 "/>
     <polygon id="_527911496" class="fil1" points="1421.7,538.276 2557.58,1674.16 2557.71,1674.52 2558.09,1675.21 2558.7,1676.21 2559.51,1677.5 2560.48,1679.06 2561.57,1680.87 2562.76,1682.91 2564.01,1685.15 2565.27,1687.59 2566.54,1690.19 2567.76,1692.94 2568.9,1695.82 2569.93,1698.81 2570.81,1701.88 2571.52,1705.02 2572.01,1708.21 1436.13,572.331 1435.63,569.141 1434.93,565.999 1434.04,562.923 1433.01,559.936 1431.87,557.058 1430.66,554.307 1429.39,551.705 1428.12,549.271 1426.88,547.026 1425.69,544.988 1424.6,543.18 1423.63,541.621 1422.82,540.331 1422.21,539.33 1421.82,538.639 "/>
     <polygon id="_527911880" class="fil1" points="1436.13,572.331 2572.01,1708.21 2572.01,1708.25 2572.02,1708.29 2572.02,1708.33 2572.03,1708.37 2572.03,1708.41 2572.04,1708.45 2572.04,1708.49 2572.05,1708.53 1436.16,572.644 1436.16,572.605 1436.16,572.565 1436.15,572.526 1436.15,572.487 1436.14,572.448 1436.14,572.409 1436.13,572.37 "/>
     <polygon id="_527911592" class="fil1" points="1436.16,572.644 2572.05,1708.53 2572.12,1709.22 2572.17,1709.91 2572.22,1710.6 2572.25,1711.3 2572.27,1711.99 2572.28,1712.69 2572.27,1713.38 2572.25,1714.08 1436.37,578.195 1436.39,577.5 1436.4,576.806 1436.39,576.11 1436.37,575.416 1436.34,574.722 1436.29,574.028 1436.23,573.336 "/>
     <polygon id="_527911280" class="fil1" points="1421.15,615.393 2557.04,1751.27 2556.1,1752.46 2555.03,1753.53 2553.85,1754.46 2552.55,1755.25 2551.15,1755.88 2549.68,1756.33 2548.13,1756.6 2546.53,1756.68 1410.65,620.794 1412.25,620.719 1413.8,620.448 1415.27,619.993 1416.67,619.367 1417.96,618.582 1419.15,617.649 1420.22,616.582 "/>
     <polygon id="_527911520" class="fil1" points="1450.18,723.771 2586.06,1859.65 2598.96,2077.49 1463.08,941.606 "/>
     <polygon id="_527911400" class="fil1" points="1503.68,720.957 2639.56,1856.84 2658.16,2070.1 1522.27,934.22 "/>
     <polygon id="_527911472" class="fil1" points="1400.26,881.756 2536.14,2017.64 2536.15,2020.16 2536.26,2022.63 2536.45,2025.04 2536.74,2027.39 2537.11,2029.68 2537.57,2031.92 2538.11,2034.11 2538.73,2036.24 2539.43,2038.31 2540.21,2040.33 2541.06,2042.29 2541.99,2044.2 2542.99,2046.05 2544.06,2047.85 2545.2,2049.6 2546.41,2051.29 2547.68,2052.92 2549.01,2054.51 1413.13,918.626 1411.8,917.042 1410.53,915.405 1409.32,913.713 1408.18,911.969 1407.11,910.17 1406.11,908.317 1405.18,906.408 1404.33,904.445 1403.55,902.428 1402.85,900.355 1402.23,898.225 1401.69,896.042 1401.23,893.801 1400.86,891.505 1400.57,889.153 1400.38,886.744 1400.27,884.279 "/>
     <polygon id="_527912312" class="fil1" points="1583.65,872.225 2719.53,2008.11 2719.61,2009.5 2719.68,2010.84 2719.74,2012.12 2719.79,2013.33 2719.83,2014.5 2719.86,2015.6 2719.88,2016.65 2719.88,2017.64 1584,881.756 1583.99,880.766 1583.98,879.719 1583.95,878.614 1583.91,877.452 1583.86,876.233 1583.8,874.955 1583.73,873.62 "/>
     <polygon id="_527912024" class="fil1" points="1548.49,723.146 2684.37,1859.03 2719.53,2008.11 1583.65,872.225 "/>
     <polygon id="_527912600" class="fil1" points="1584,881.756 2719.88,2017.64 2719.85,2020.71 2719.75,2023.73 2719.59,2026.68 2719.36,2029.59 2719.07,2032.44 2718.72,2035.23 2718.32,2037.97 2717.84,2040.65 2717.31,2043.28 2716.73,2045.86 2716.08,2048.38 2715.38,2050.85 2714.62,2053.27 2713.81,2055.63 2712.94,2057.94 2712.02,2060.21 2711.05,2062.42 2710.03,2064.58 2708.95,2066.69 2707.83,2068.75 2706.66,2070.76 2705.44,2072.72 2704.17,2074.63 2702.86,2076.5 2701.5,2078.31 2700.1,2080.08 2698.65,2081.8 2697.16,2083.48 2695.62,2085.1 2694.05,2086.68 2692.44,2088.22 2690.78,2089.71 1554.9,953.828 1556.56,952.338 1558.17,950.802 1559.74,949.221 1561.28,947.593 1562.77,945.918 1564.21,944.198 1565.62,942.429 1566.98,940.613 1568.29,938.749 1569.56,936.836 1570.78,934.875 1571.95,932.864 1573.07,930.804 1574.15,928.694 1575.17,926.534 1576.14,924.323 1577.06,922.061 1577.93,919.748 1578.74,917.383 1579.5,914.965 1580.2,912.496 1580.85,909.973 1581.43,907.397 1581.96,904.768 1582.43,902.084 1582.84,899.346 1583.19,896.553 1583.48,893.705 1583.71,890.802 1583.87,887.844 1583.97,884.828 "/>
     <polygon id="_527912120" class="fil1" points="1100.29,605.855 2236.17,1741.74 2234.93,1742.97 2233.74,1744.13 2232.58,1745.22 2231.44,1746.21 2230.31,1747.1 2229.16,1747.89 2227.98,1748.57 2226.75,1749.12 1090.87,613.239 1092.09,612.686 1093.27,612.01 1094.42,611.221 1095.56,610.326 1096.7,609.334 1097.86,608.252 1099.05,607.091 "/>
     <polygon id="_527912456" class="fil1" points="1554.9,953.828 2690.78,2089.71 2689.31,2091.05 2687.74,2092.55 2686.1,2094.2 2684.37,2096.01 2682.58,2097.95 2680.72,2100.03 2678.8,2102.23 2676.83,2104.55 2674.82,2106.98 2672.76,2109.52 2670.66,2112.16 2668.54,2114.89 2666.39,2117.7 2664.22,2120.58 2662.04,2123.54 2659.86,2126.56 2657.67,2129.63 2655.49,2132.76 2653.32,2135.92 2651.16,2139.12 2649.03,2142.34 2646.93,2145.59 2644.86,2148.84 2642.82,2152.11 2640.84,2155.37 2638.9,2158.62 2637.03,2161.85 2635.21,2165.07 2633.46,2168.25 2631.79,2171.4 2630.2,2174.5 2628.7,2177.55 1492.81,1041.67 1494.32,1038.62 1495.91,1035.52 1497.58,1032.37 1499.33,1029.19 1501.14,1025.97 1503.02,1022.74 1504.96,1019.48 1506.94,1016.22 1508.97,1012.96 1511.05,1009.71 1513.15,1006.46 1515.28,1003.24 1517.44,1000.04 1519.61,996.875 1521.79,993.752 1523.98,990.678 1526.16,987.659 1528.34,984.702 1530.51,981.815 1532.66,979.004 1534.78,976.276 1536.88,973.64 1538.94,971.102 1540.95,968.668 1542.92,966.347 1544.84,964.144 1546.7,962.068 1548.49,960.125 1550.21,958.322 1551.86,956.668 1553.43,955.166 "/>
     <polygon id="_527912480" class="fil1" points="1492.81,1041.67 2628.7,2177.55 2628.28,2178.42 2627.87,2179.29 2627.46,2180.15 2627.07,2181.01 2626.68,2181.86 2626.3,2182.71 2625.93,2183.55 2625.57,2184.38 2625.22,2185.21 2624.87,2186.03 2624.54,2186.85 2624.21,2187.65 2623.9,2188.45 2623.59,2189.25 2623.29,2190.03 2623.01,2190.81 1487.13,1054.93 1487.41,1054.15 1487.71,1053.37 1488.02,1052.57 1488.33,1051.77 1488.66,1050.96 1488.99,1050.15 1489.34,1049.33 1489.69,1048.5 1490.05,1047.67 1490.42,1046.83 1490.8,1045.98 1491.19,1045.13 1491.58,1044.27 1491.98,1043.41 1492.39,1042.54 "/>
     <polygon id="_527912528" class="fil1" points="837.535,646.739 1973.42,1782.62 1966.36,1781.48 1959.34,1780.24 1952.36,1778.9 1945.42,1777.47 1938.52,1775.94 1931.67,1774.31 1924.87,1772.58 1918.14,1770.75 1911.47,1768.82 1904.86,1766.8 1898.33,1764.69 1891.87,1762.47 1885.5,1760.16 1879.2,1757.75 1873,1755.25 1866.9,1752.65 1860.89,1749.95 1854.98,1747.16 1849.18,1744.27 1843.49,1741.28 1837.92,1738.2 1832.47,1735.03 1827.14,1731.76 1821.95,1728.39 1816.88,1724.93 1811.96,1721.38 1807.18,1717.73 1802.54,1713.99 1798.06,1710.15 1793.73,1706.22 1789.56,1702.2 653.679,566.313 657.847,570.337 662.176,574.268 666.66,578.105 671.295,581.848 676.078,585.497 681.003,589.05 686.065,592.51 691.263,595.875 696.589,599.145 702.04,602.32 707.612,605.399 713.299,608.384 719.098,611.273 725.005,614.065 731.014,616.763 737.122,619.363 743.324,621.869 749.614,624.277 755.991,626.588 762.448,628.804 768.981,630.922 775.586,632.943 782.259,634.867 788.994,636.694 795.788,638.423 802.636,640.054 809.534,641.587 816.478,643.022 823.462,644.36 830.482,645.599 "/>
     <polygon id="_527912216" class="fil1" points="665.774,753.586 1801.65,1889.47 1804.07,1891.87 1806.43,1894.34 1808.74,1896.89 1811.01,1899.51 1813.22,1902.19 1815.39,1904.94 679.506,769.062 677.343,766.309 675.128,763.625 672.863,761.008 670.548,758.462 668.184,755.988 "/>
     <polygon id="_527912552" class="fil1" points="679.506,769.062 1815.39,1904.94 1817.43,1907.67 1819.43,1910.47 1821.37,1913.32 1823.26,1916.23 1825.1,1919.2 1826.88,1922.22 1828.61,1925.31 1830.28,1928.44 1831.9,1931.63 1833.46,1934.87 1834.95,1938.16 1836.39,1941.5 1837.77,1944.89 1839.09,1948.33 1840.34,1951.81 1841.53,1955.33 1842.66,1958.9 1843.72,1962.51 1844.71,1966.16 1845.63,1969.85 1846.49,1973.58 1847.28,1977.34 1847.99,1981.14 1848.64,1984.98 1849.21,1988.85 1849.71,1992.74 1850.14,1996.67 1850.49,2000.63 1850.76,2004.62 1850.96,2008.63 1851.08,2012.67 1851.12,2016.74 715.236,880.854 715.196,876.791 715.078,872.751 714.88,868.737 714.606,864.751 714.256,860.792 713.83,856.862 713.331,852.963 712.758,849.095 712.112,845.261 711.395,841.462 710.608,837.696 709.751,833.969 708.826,830.279 707.834,826.629 706.775,823.019 705.649,819.451 704.46,815.926 703.206,812.446 701.891,809.01 700.512,805.621 699.074,802.281 697.575,798.989 696.017,795.749 694.403,792.56 692.73,789.425 691.001,786.342 689.217,783.316 687.38,780.347 685.489,777.435 683.546,774.584 681.551,771.792 "/>
     <polygon id="_527912672" class="fil1" points="1297.7,883.9 2433.58,2019.78 2444.81,2032.75 2455.42,2046.25 2465.38,2060.26 2474.68,2074.75 2483.28,2089.72 2491.17,2105.13 2498.33,2120.95 2504.73,2137.18 2510.34,2153.78 2515.16,2170.74 2519.15,2188.03 2522.29,2205.63 2524.56,2223.51 2525.94,2241.65 2526.41,2260.04 2525.94,2278.43 2524.56,2296.58 2522.29,2314.46 2519.15,2332.06 2515.16,2349.35 2510.34,2366.3 2504.73,2382.91 2498.33,2399.13 2491.17,2414.96 2483.28,2430.37 2474.68,2445.33 2465.38,2459.83 2455.42,2473.84 2444.81,2487.34 2433.58,2500.3 2421.75,2512.71 2409.34,2524.55 2396.37,2535.78 2382.87,2546.38 2368.87,2556.35 2354.37,2565.64 2339.4,2574.25 2324,2582.14 2308.17,2589.29 2291.94,2595.69 2275.34,2601.31 2258.38,2606.12 2241.09,2610.11 2223.5,2613.26 2205.61,2615.53 2187.47,2616.91 2169.08,2617.37 2150.69,2616.91 2132.54,2615.53 2114.66,2613.26 2097.06,2610.11 2079.78,2606.12 2062.82,2601.31 2046.22,2595.69 2029.99,2589.29 2014.16,2582.14 1998.75,2574.25 1983.79,2565.64 1969.29,2556.35 1955.28,2546.38 1941.78,2535.78 1928.82,2524.55 792.936,1388.66 805.902,1399.89 819.401,1410.5 833.41,1420.46 847.908,1429.76 862.873,1438.36 878.279,1446.25 894.108,1453.41 910.335,1459.81 926.938,1465.43 943.895,1470.24 961.183,1474.23 978.779,1477.37 996.662,1479.65 1014.81,1481.03 1033.2,1481.49 1051.59,1481.03 1069.73,1479.65 1087.62,1477.37 1105.21,1474.23 1122.5,1470.24 1139.46,1465.43 1156.06,1459.81 1172.29,1453.41 1188.12,1446.25 1203.52,1438.36 1218.49,1429.76 1232.98,1420.46 1246.99,1410.5 1260.49,1399.89 1273.46,1388.66 1285.87,1376.83 1297.7,1364.42 1308.93,1351.46 1319.54,1337.96 1329.5,1323.95 1338.8,1309.45 1347.4,1294.49 1355.29,1279.08 1362.45,1263.25 1368.85,1247.02 1374.46,1230.42 1379.28,1213.46 1383.27,1196.18 1386.41,1178.58 1388.68,1160.7 1390.06,1142.55 1390.53,1124.16 1390.06,1105.77 1388.68,1087.63 1386.41,1069.74 1383.27,1052.15 1379.28,1034.86 1374.46,1017.9 1368.85,1001.3 1362.45,985.071 1355.29,969.243 1347.4,953.835 1338.8,938.872 1329.5,924.374 1319.54,910.364 1308.93,896.865 "/>
     <polygon id="_527913152" class="fil1" points="1510.03,1514.98 2645.91,2650.86 2644.08,2652.51 2642.2,2654.04 2640.28,2655.44 2638.32,2656.72 2636.32,2657.89 2634.3,2658.93 2632.24,2659.86 2630.17,2660.67 2628.07,2661.37 2625.95,2661.95 2623.83,2662.43 2621.69,2662.8 2619.55,2663.06 2617.4,2663.21 2615.26,2663.27 2613.12,2663.21 1477.24,1527.33 1479.38,1527.38 1481.52,1527.33 1483.66,1527.18 1485.81,1526.92 1487.94,1526.55 1490.07,1526.07 1492.19,1525.49 1494.29,1524.79 1496.36,1523.98 1498.42,1523.05 1500.44,1522 1502.44,1520.84 1504.4,1519.56 1506.32,1518.15 1508.2,1516.63 "/>
     <polygon id="_527913080" class="fil1" points="1522.85,1494.43 2658.73,2630.31 2658.27,2631.78 2657.76,2633.23 2657.2,2634.66 2656.59,2636.07 2655.93,2637.45 2655.23,2638.81 2654.49,2640.14 2653.7,2641.45 2652.86,2642.74 2651.99,2643.99 2651.07,2645.21 2650.11,2646.41 2649.12,2647.57 2648.09,2648.7 2647.02,2649.8 2645.91,2650.86 1510.03,1514.98 1511.14,1513.91 1512.21,1512.82 1513.24,1511.69 1514.23,1510.53 1515.19,1509.33 1516.11,1508.11 1516.98,1506.85 1517.81,1505.57 1518.6,1504.26 1519.35,1502.93 1520.05,1501.57 1520.71,1500.18 1521.32,1498.78 1521.88,1497.35 1522.39,1495.9 "/>
     <polygon id="_527913320" class="fil1" points="1522.85,1494.43 2658.73,2630.31 2659.13,2628.86 2659.48,2627.4 2659.78,2625.91 2660.03,2624.41 2660.23,2622.88 2660.37,2621.34 2660.45,2619.78 2660.48,2618.21 1524.6,1482.33 1524.57,1483.9 1524.49,1485.46 1524.35,1487 1524.15,1488.52 1523.9,1490.03 1523.6,1491.51 1523.25,1492.98 "/>
     <polygon id="_527913392" class="fil1" points="634.264,1261.8 1770.15,2397.69 1770.14,2618.8 1770.08,2621.04 1769.9,2623.27 1769.6,2625.47 1769.19,2627.63 1768.67,2629.76 1768.04,2631.86 1767.31,2633.91 1766.47,2635.93 1765.54,2637.89 1764.51,2639.8 1763.39,2641.67 1762.18,2643.47 1760.89,2645.21 1759.51,2646.89 1758.06,2648.51 1756.53,2650.05 620.647,1514.17 622.178,1512.63 623.633,1511.01 625.009,1509.33 626.302,1507.59 627.511,1505.78 628.629,1503.92 629.658,1502.01 630.591,1500.04 631.426,1498.03 632.16,1495.98 632.789,1493.88 633.311,1491.75 633.723,1489.58 634.021,1487.39 634.202,1485.16 634.263,1482.91 "/>
     <polygon id="_527913512" class="fil1" points="620.647,1514.17 1756.53,2650.05 1756.45,2650.13 1756.37,2650.21 1756.29,2650.29 1756.22,2650.37 1756.14,2650.45 1756.06,2650.53 1755.98,2650.61 1755.9,2650.69 1754.12,2652.38 1752.28,2653.95 1750.4,2655.38 1748.48,2656.69 1746.52,2657.88 1744.53,2658.94 1742.51,2659.88 1740.47,2660.7 1738.4,2661.41 1736.31,2662 1734.21,2662.47 1732.1,2662.83 1729.99,2663.08 1727.87,2663.23 1725.76,2663.26 1723.65,2663.19 1721.55,2663.02 1719.47,2662.75 1717.4,2662.37 1715.36,2661.9 1713.34,2661.33 1711.35,2660.67 1709.4,2659.91 1707.48,2659.07 1705.61,2658.13 1703.78,2657.1 1702,2655.99 1700.28,2654.8 1698.61,2653.52 562.727,1517.64 564.395,1518.92 566.121,1520.11 567.899,1521.22 569.728,1522.25 571.602,1523.18 573.519,1524.03 575.472,1524.79 577.46,1525.45 579.479,1526.02 581.522,1526.49 583.588,1526.87 585.671,1527.14 587.77,1527.31 589.877,1527.38 591.991,1527.34 594.108,1527.2 596.223,1526.95 598.332,1526.59 600.43,1526.11 602.516,1525.52 604.584,1524.82 606.631,1524 608.652,1523.06 610.643,1522 612.602,1520.81 614.522,1519.5 616.402,1518.07 618.237,1516.5 620.021,1514.81 620.1,1514.73 620.178,1514.65 620.258,1514.57 620.336,1514.49 620.413,1514.41 620.491,1514.33 620.569,1514.25 "/>
     <polygon id="_527913104" class="fil1" points="1477.24,1527.33 2613.12,2663.21 2611.12,2663.1 2609.15,2662.89 2607.21,2662.6 2605.29,2662.23 2603.4,2661.78 2601.54,2661.25 2599.71,2660.65 2597.92,2659.97 2596.17,2659.21 2594.45,2658.39 2592.77,2657.5 2591.14,2656.54 2589.55,2655.51 2588.01,2654.42 2586.51,2653.28 2585.06,2652.07 1449.18,1516.18 1450.63,1517.39 1452.13,1518.54 1453.67,1519.63 1455.26,1520.66 1456.89,1521.62 1458.57,1522.51 1460.28,1523.33 1462.04,1524.09 1463.83,1524.77 1465.66,1525.37 1467.51,1525.9 1469.41,1526.35 1471.33,1526.72 1473.27,1527.01 1475.24,1527.21 "/>
     <polygon id="_527913128" class="fil1" points="1449.18,1516.18 2585.06,2652.06 2585.05,2652.06 1449.17,1516.18 "/>
     <polygon id="_527913464" class="fil1" points="1449.17,1516.17 2585.05,2652.05 2585.05,2652.05 1449.16,1516.17 "/>
    </g>
    <path id="_517155664" class="fil1" d="M1477.24 1527.33c-10.702,-0.398032 -20.4803,-4.54489 -28.0559,-11.1484 -0.00590552,-0.00590552 -0.0129921,-0.011811 -0.0188977,-0.0165354 7.81182,6.6815 17.7862,10.676 28.0748,11.165zm32.7933 -12.3567c-9.64843,9.14883 -21.4122,12.8976 -32.7933,12.3567 0.0106299,0.0011811 0.0200788,0.0011811 0.0307087,0.0011811 0.553937,0.0200788 1.10906,0.0307087 1.66772,0.0307087l0.65315 -0.00826772 0.0472441 0c11.648,-0.18189 22.3536,-4.90394 30.3945,-12.3803zm12.8162 -20.5453c-2.32087,7.88505 -6.83032,14.9788 -12.8162,20.5453 0.317717,-0.301181 0.633071,-0.608268 0.946064,-0.921261 5.4378,-5.43898 9.64725,-12.111 11.8701,-19.624zm1.75276 -12.1039c0,4.03111 -0.572835,7.96536 -1.64173,11.7236 -0.0366142,0.127559 -0.0732284,0.253937 -0.111024,0.380315 1.13504,-3.83268 1.75276,-7.88505 1.75276,-12.1039zm59.3989 -600.57c0,33.0709 -11.2536,56.4166 -29.0977,72.0721 -15.2646,13.3902 -46.5048,55.5957 -62.0882,87.841 -2.25591,4.6689 -4.18465,9.12875 -5.68819,13.2614 -3.14055,0.196063 -5.96221,0.311811 -8.47442,0.351969l-0.0956694 0.00236221 -0.0968505 -0.00236221c-2.51339,-0.0401575 -5.33386,-0.155906 -8.47442,-0.351969 -1.16811,-3.21142 -2.59252,-6.6189 -4.22835,-10.1693 -15.0083,-32.5796 -47.791,-77.1107 -63.5481,-90.9331 -17.8441,-15.6555 -29.0988,-39.0012 -29.0988,-72.0721l0.351969 -9.5315 35.1591 -149.079c0.67441,1.75276 0.992127,3.67323 0.869292,5.6693l-9.02717 145.06c-0.137008,2.17559 -0.20315,4.81181 -0.20315,7.8815 -0.368504,27.2103 15.3992,44.6764 37.0583,53.5264l12.8599 -211.512 12.9059 217.836c5.02678,0.54567 10.1433,0.748819 15.2599,0.618898l0.212599 -0.00472441 0.211417 0.00472441c6.04961,0.153543 12.098,-0.158268 17.9988,-0.950788l6.91654 -220.317 18.5917 213.262c20.3717,-9.15001 34.9299,-26.3044 34.5756,-52.4634 0,-3.06969 -0.0661418,-5.70591 -0.201969,-7.88268l-8.15788 -150.728 35.1579 149.079c0.236221,3.79725 0.351969,6.96733 0.351969,9.5315zm-941.309 -361.119l478.174 8.03032 290.638 4.88032c3.81851,-0.119291 7.64174,1.50591 10.1988,4.72796 -0.108662,1.01811 12.424,16.95 14.426,34.0548 0.0141732,0.103937 0.0259843,0.207874 0.0366142,0.312992 0.201969,1.8437 0.282284,3.69922 0.206693,5.55119 -0.518504,12.8965 -5.863,25.1764 -15.2173,37.1977 -2.29961,3.32362 -6.16418,5.47441 -10.5083,5.40119l0 -0.0153543c-88.8119,-1.48937 -177.678,-3.3626 -266.478,-5.49095 -5.48268,0.396851 -10.7728,-2.87835 -12.6933,-8.31142l0.0389764 -0.0141732c-4.26024,-12.0307 -8.42009,-15.4973 -12.0272,-15.2032 -0.485433,0.0389764 -0.960237,0.146457 -1.42441,0.31063 -1.68898,0.597638 -3.44764,1.5626 -5.20276,2.74134 -4.65945,3.12992 -9.29764,7.76812 -12.5728,11.0445 -3.38386,3.38268 -6.07796,6.07678 -9.41694,7.38426 -65.8146,37.1138 -163.558,47.3575 -253.335,33.4996 -75.3827,-11.6374 -146.052,-40.1185 -187.858,-84.5446 -4.37953,-4.65355 -14.8571,-15.9295 -18.4488,-24.2563 -0.798426,-1.84843 -1.25669,-3.55276 -1.23307,-5.00552 0.111024,-6.90119 5.79685,-12.4063 12.6969,-12.2953zm747.837 603.524c0,197.348 -159.983,357.33 -357.331,357.33 -197.348,0 -357.331,-159.982 -357.331,-357.33 0,-197.349 159.983,-357.331 357.331,-357.331 197.348,0 357.331,159.982 357.331,357.331zm-675.292 -243.307c0,43.4681 -13.6547,83.0056 -35.7296,111.789 -19.6736,25.65 -46.0276,42.8552 -75.5859,47.087l-0.281103 101.033c0,4.38898 0.0968505,8.40709 0.27874,12.1004l1.53898 -0.00826772c5.90788,46.2461 28.8071,28.6299 28.8071,108.95l-0.0011811 221.108c0,12.0508 -5.25473,23.211 -13.6158,31.2579 -0.206693,0.214961 -0.415748,0.427559 -0.625985,0.637796 -18.763,18.763 -46.604,15.0709 -61.9123,-1.47402 -7.74568,-7.97481 -12.5185,-18.8327 -12.4937,-30.7264l0.912993 -219.282c0.244488,-76.4634 24.3437,-65.0327 29.9492,-110.31l1.40197 -0.00826772c0.0992127,-2.55355 0.151181,-5.25473 0.151181,-8.1189l-0.0011811 -104.808c-30.6579,-3.54095 -58.0264,-21.0047 -78.3001,-47.4378 -22.0748,-28.7835 -35.7296,-68.3209 -35.7296,-111.79 0,-43.4681 13.6547,-83.0068 35.7296,-111.789 22.7965,-29.7225 54.5599,-48.1063 89.8879,-48.1063 35.328,0 67.0926,18.3839 89.889,48.1052 22.0748,28.7835 35.7296,68.3221 35.7296,111.791z"/>
   </g>
  </g>
  <path class="fil2" d="M1024 -0.0011811c565.541,0 1024,458.461 1024,1024 0,565.541 -458.461,1024 -1024,1024 -565.541,0 -1024,-458.461 -1024,-1024 0,-565.541 458.461,-1024 1024,-1024z"/>
  <circle class="fil3" cx="1033.2" cy="1124.16" r="357.331"/>
  <circle class="fil4" cx="1033.2" cy="1124.16" r="218.211"/>
  <path class="fil5" d="M1083.85 589.293c0.99567,-0.180709 2.00315,-0.236221 2.99646,-0.173622 2.68819,0.0153543 -2.75315,-0.360236 -3.95551,-0.79252l0.959056 0.966142z"/>
  <path class="fil6" d="M837.535 646.739c-75.3827,-11.6374 -146.052,-40.1185 -187.858,-84.5446 -5.35158,-5.68583 -19.8106,-21.2646 -19.6819,-29.2618 0.111024,-6.90119 5.79567,-12.4063 12.6969,-12.2953l768.812 12.9106c3.81733,-0.119291 7.64174,1.50591 10.1988,4.72796 -0.120473,1.13386 15.4394,20.7685 14.6693,39.9189 -0.518504,12.8965 -5.863,25.1776 -15.2185,37.1977 -2.29843,3.32362 -6.163,5.47441 -10.5071,5.40119l0 -0.0153543c-88.8119,-1.48937 -177.678,-3.3626 -266.478,-5.49095 -5.48268,0.396851 -10.7728,-2.87953 -12.6945,-8.31142l0.0389764 -0.0141732c-4.83189,-13.6488 -9.53623,-16.2756 -13.4504,-14.8914 -6.17363,2.18268 -13.265,9.27402 -17.7768,13.7847 -3.38268,3.38268 -6.07678,6.0756 -9.41576,7.38544 -65.8146,37.1126 -163.559,47.3563 -253.335,33.4985z"/>
  <path class="fil7" d="M1120.01 567.706l0 0.0401575 -0.525591 24.013c3.60709,-0.294095 7.76812,3.17244 12.026,15.2032l-0.0389764 0.0141732c1.92166,5.43189 7.21182,8.70827 12.6945,8.31142 88.8001,2.12835 177.666,4.00158 266.478,5.49095l0 0.0153543c4.3441,0.0732284 8.20867,-2.07756 10.5071,-5.40119 9.35552,-12.0201 14.7,-24.3012 15.2185,-37.1977 0.0755906,-1.85197 -0.00472441,-3.70748 -0.206693,-5.55119l-0.0366142 -0.312992 -316.116 -4.6252z"/>
  <path class="fil8" d="M1411.5 533.548l-290.638 -4.88032 -0.853938 39.0378 316.116 4.6252c-2.00433,-17.1047 -14.5347,-33.0366 -14.426,-34.0548 -2.55709,-3.22205 -6.3815,-4.84725 -10.1988,-4.72796z"/>
  <path class="fil9" d="M837.535 646.739c89.7757,13.8579 187.52,3.61418 253.335,-33.4985 3.33898,-1.30984 6.03308,-4.00276 9.41576,-7.38544 3.27756,-3.27638 7.91575,-7.91457 12.5752,-11.0445 -220.586,64.193 -368.403,19.7055 -481.633,-56.8725 3.59174,8.32678 14.0693,19.6028 18.4488,24.2563 41.8063,44.426 112.475,72.9071 187.858,84.5446z"/>
  <path class="fil10" d="M603.935 1034.9c0,-7.07127 -6.02835,-12.5091 -13.0996,-12.5091 -7.07127,0 -12.8043,5.73308 -12.8043,12.8043l0 109.695c0,68.7544 -29.8571,43.5331 -30.1252,127.339l-0.884646 212.359 0 0.0011811c0,11.7768 4.80827,22.4752 12.5551,30.2209 7.74686,7.74686 18.4441,12.5551 30.2209,12.5551l0.0011811 0 0.0011811 0c11.7768,0 22.4752,-4.80827 30.2221,-12.5551 7.74686,-7.74686 12.8492,-18.15 12.8492,-29.9268l0 -214.128c0,-89.3056 -29.2311,-53.5878 -29.2311,-129.991l0.295276 -105.865z"/>
  <path class="fil10" d="M589.617 720.957c35.328,0 67.0926,18.3839 89.8879,48.1052 22.0772,28.7835 35.7307,68.3209 35.7307,111.79l0 0.0011811c0,43.4681 -13.6547,83.0068 -35.7307,111.789 -22.7953,29.7213 -54.5587,48.104 -89.8867,48.104l0 0c-35.328,0 -67.0926,-18.3839 -89.8879,-48.104 -22.0772,-28.7835 -35.7307,-68.3221 -35.7307,-111.79 0,-43.4693 13.6536,-83.0068 35.7307,-111.79 22.7953,-29.7213 54.5587,-48.1052 89.8867,-48.1052z"/>
  <path class="fil6" d="M589.619 727.993c28.0418,0 53.2559,14.5925 71.3493,38.1839 17.524,22.8473 28.363,54.2327 28.363,88.7363l0 0.0011811c-0.0011811,34.5036 -10.839,65.8878 -28.363,88.7339 -18.0933,23.5925 -43.3063,38.1839 -71.3493,38.1839l0 0c-28.0429,0 -53.2559,-14.5913 -71.3504,-38.1839 -17.524,-22.8473 -28.3618,-54.2315 -28.3618,-88.7351 0,-34.5036 10.8378,-65.8878 28.3618,-88.7351 18.0945,-23.5925 43.3075,-38.1851 71.3504,-38.1851z"/>
  <path class="fil7" d="M590.424 1152.94l-13.9453 0.0767717c-5.60788,45.2776 -29.7059,33.8469 -29.9504,110.31l-0.912993 219.282c-0.0507874,24.2374 19.8201,44.1721 44.1721,44.1721 0.212599,0 0.424016,-0.00472441 0.636615,-0.00826772l0 -373.833z"/>
  <path class="fil8" d="M605.457 1152.85l-14.7307 0.0814961 -0.302362 0.00236221 0 373.833 0.046063 0c23.9398,-0.375591 43.7929,-20.4343 43.7929,-43.8591l0.0011811 -221.108c0,-80.3197 -22.8992,-62.7036 -28.8071,-108.95z"/>
  <path class="fil11" d="M585.578 752.786c-1.60866,0 -2.91378,1.30512 -2.91378,2.91378 0,1.60866 1.30512,2.91378 2.91378,2.91378 10.9571,0 21.3792,2.8004 30.8599,7.87442 9.92363,5.31142 18.8256,13.102 26.2453,22.7752 7.22717,9.42284 13.0559,20.6599 17.041,33.1276 3.84095,12.0177 5.96103,25.1858 5.96103,38.9823 0,1.60984 1.30512,2.91496 2.91378,2.91496 1.60866,0 2.91378,-1.30512 2.91378,-2.91496 0,-14.3835 -2.22284,-28.1516 -6.2504,-40.7528 -4.18701,-13.1008 -10.3358,-24.939 -17.9752,-34.8992 -7.93229,-10.3406 -17.4614,-18.6768 -28.0973,-24.3685 -10.3134,-5.52048 -21.6638,-8.56654 -33.6118,-8.56654z"/>
  <path class="fil10" d="M1408.62 723.146c0.67441,1.75276 0.992127,3.67323 0.870473,5.6693l-9.02835 145.058c-0.137008,2.17795 -0.201969,4.813 -0.20315,7.88268 -0.579922,42.7713 38.7083,61.467 78.0839,60.4701l0.211417 -0.00590552 0.212599 0.00590552c39.3744,0.996851 78.6627,-17.6988 78.0827,-60.4701 0,-3.06969 -0.0661418,-5.70473 -0.201969,-7.88268l-8.15788 -150.728 35.1591 149.079c0.23504,3.79607 0.351969,6.96615 0.351969,9.5315 -0.0011811,33.0709 -11.2547,56.4166 -29.0988,72.0721 -17.4744,15.3284 -55.8863,68.4201 -67.7764,101.102 -3.14055,0.196063 -5.96221,0.311811 -8.47442,0.35315l-0.0968505 0.0011811 -0.0956694 -0.0011811c-2.51339,-0.0413386 -5.33504,-0.157087 -8.47442,-0.35315 -11.8913,-32.6823 -50.3032,-85.7741 -67.7764,-101.102 -17.8441,-15.6555 -29.0988,-39.0012 -29.0988,-72.0721l0.351969 -9.5315 35.1591 -149.079z"/>
  <path class="fil10" d="M1450.18 723.771l-13.7504 226.16c0,7.49646 6.07796,13.5756 13.5744,13.5756 7.49764,0 13.5756,-6.07914 13.5756,-13.5756l-13.3996 -226.16z"/>
  <path class="fil10" d="M1503.68 720.958l-7.18701 228.972c0,7.49646 6.07796,13.5756 13.5744,13.5756 7.49764,0 13.5756,-6.07914 13.5756,-13.5756l-19.963 -228.972z"/>
  <path class="fil10" d="M1493.22 1044.41c0,-7.49764 -6.07796,-4.513 -13.5744,-4.513 -7.49764,0 -13.8874,-2.67166 -13.8874,4.82481l0.703938 77.1556c0,72.8906 -31.6536,46.1516 -31.937,135l-0.937796 225.135 0 0.0011811c0,12.4854 5.09764,23.8264 13.3099,32.0398 8.21221,8.21221 19.5543,13.3099 32.0386,13.3099l0.0011811 0 0.0011811 0c12.4866,0 23.8276,-5.09764 32.041,-13.3099 8.21221,-8.21339 13.6228,-19.2425 13.6228,-31.728l0 -227.01c0,-94.6784 -30.9898,-56.8122 -30.9898,-137.812l-0.392126 -73.0926z"/>
  <path class="fil7" d="M1479.59 1143.54l-14.3185 0.0791339c-5.7567,46.4859 -30.4984,34.7492 -30.7488,113.255l-0.937796 225.135c-0.0519685,24.8835 20.3492,45.3508 45.3508,45.3508 0.218504,0 0.435827,-0.00472441 0.65315,-0.00826772l0.0011811 -383.811z"/>
  <path class="fil8" d="M1495.03 1143.46l-15.124 0.0838583 -0.309449 0.00236221 -0.0011811 383.811 0.0472441 0c24.5788,-0.386221 44.9634,-20.9799 44.9634,-45.0296l0 -227.01c0,-82.4634 -23.5099,-64.3772 -29.576,-111.858z"/>
 </g>
</svg>
